<mxfile host="65bd71144e" pages="4">
    <diagram name="Архитектурная диаграмма" id="UaDIaehC2_rEupvbHqjx">
        <mxGraphModel dx="706" dy="934" grid="1" gridSize="10" guides="1" tooltips="1" connect="1" arrows="1" fold="1" page="1" pageScale="1" pageWidth="1654" pageHeight="1169" math="0" shadow="0">
            <root>
                <mxCell id="0"/>
                <mxCell id="1" parent="0"/>
                <mxCell id="RCPGzr8Mgh46j4ntfKDq-60" style="edgeStyle=none;rounded=0;orthogonalLoop=1;jettySize=auto;html=1;exitX=1;exitY=0.5;exitDx=0;exitDy=0;entryX=0.001;entryY=0.803;entryDx=0;entryDy=0;entryPerimeter=0;labelBackgroundColor=none;fontColor=default;" parent="1" source="RCPGzr8Mgh46j4ntfKDq-52" target="RCPGzr8Mgh46j4ntfKDq-11" edge="1">
                    <mxGeometry relative="1" as="geometry"/>
                </mxCell>
                <mxCell id="RCPGzr8Mgh46j4ntfKDq-52" value="" style="rounded=0;whiteSpace=wrap;html=1;labelBackgroundColor=none;" parent="1" vertex="1">
                    <mxGeometry x="250" y="402.5" width="220" height="147.5" as="geometry"/>
                </mxCell>
                <mxCell id="RCPGzr8Mgh46j4ntfKDq-42" value="" style="rounded=0;whiteSpace=wrap;html=1;labelBackgroundColor=none;" parent="1" vertex="1">
                    <mxGeometry x="1010" y="167" width="400" height="385" as="geometry"/>
                </mxCell>
                <mxCell id="RCPGzr8Mgh46j4ntfKDq-59" style="edgeStyle=none;rounded=0;orthogonalLoop=1;jettySize=auto;html=1;exitX=1;exitY=0.5;exitDx=0;exitDy=0;entryX=0.001;entryY=0.183;entryDx=0;entryDy=0;entryPerimeter=0;labelBackgroundColor=none;fontColor=default;" parent="1" source="RCPGzr8Mgh46j4ntfKDq-25" target="RCPGzr8Mgh46j4ntfKDq-11" edge="1">
                    <mxGeometry relative="1" as="geometry"/>
                </mxCell>
                <mxCell id="RCPGzr8Mgh46j4ntfKDq-25" value="" style="rounded=0;whiteSpace=wrap;html=1;labelBackgroundColor=none;" parent="1" vertex="1">
                    <mxGeometry x="250" y="170" width="220" height="140" as="geometry"/>
                </mxCell>
                <mxCell id="RCPGzr8Mgh46j4ntfKDq-61" style="edgeStyle=none;rounded=0;orthogonalLoop=1;jettySize=auto;html=1;exitX=1;exitY=0.5;exitDx=0;exitDy=0;entryX=0;entryY=0.5;entryDx=0;entryDy=0;labelBackgroundColor=none;fontColor=default;" parent="1" source="RCPGzr8Mgh46j4ntfKDq-11" target="RCPGzr8Mgh46j4ntfKDq-42" edge="1">
                    <mxGeometry relative="1" as="geometry"/>
                </mxCell>
                <mxCell id="RCPGzr8Mgh46j4ntfKDq-72" style="edgeStyle=orthogonalEdgeStyle;rounded=0;orthogonalLoop=1;jettySize=auto;html=1;exitX=1;exitY=0.75;exitDx=0;exitDy=0;entryX=0;entryY=0.5;entryDx=0;entryDy=0;" parent="1" source="RCPGzr8Mgh46j4ntfKDq-11" target="RCPGzr8Mgh46j4ntfKDq-69" edge="1">
                    <mxGeometry relative="1" as="geometry"/>
                </mxCell>
                <mxCell id="RCPGzr8Mgh46j4ntfKDq-11" value="" style="rounded=0;whiteSpace=wrap;html=1;labelBackgroundColor=none;" parent="1" vertex="1">
                    <mxGeometry x="560" y="170" width="320" height="380" as="geometry"/>
                </mxCell>
                <mxCell id="RCPGzr8Mgh46j4ntfKDq-2" value="User Mobile App" style="rounded=0;whiteSpace=wrap;html=1;labelBackgroundColor=none;fillColor=#dae8fc;strokeColor=#6c8ebf;" parent="1" vertex="1">
                    <mxGeometry x="300" y="210" width="120" height="60" as="geometry"/>
                </mxCell>
                <mxCell id="RCPGzr8Mgh46j4ntfKDq-3" value="User Backend" style="shape=parallelogram;perimeter=parallelogramPerimeter;whiteSpace=wrap;html=1;fixedSize=1;rounded=0;labelBackgroundColor=none;fillColor=#d5e8d4;strokeColor=#82b366;" parent="1" vertex="1">
                    <mxGeometry x="620" y="317.5" width="190" height="60" as="geometry"/>
                </mxCell>
                <mxCell id="RCPGzr8Mgh46j4ntfKDq-4" value="SQL&lt;br&gt;" style="shape=cylinder3;whiteSpace=wrap;html=1;boundedLbl=1;backgroundOutline=1;size=15;rounded=0;labelBackgroundColor=none;fillColor=#e1d5e7;strokeColor=#9673a6;" parent="1" vertex="1">
                    <mxGeometry x="1075" y="220" width="110" height="100" as="geometry"/>
                </mxCell>
                <mxCell id="RCPGzr8Mgh46j4ntfKDq-68" style="edgeStyle=orthogonalEdgeStyle;rounded=0;orthogonalLoop=1;jettySize=auto;html=1;exitX=1;exitY=0.5;exitDx=0;exitDy=0;entryX=1;entryY=0.5;entryDx=0;entryDy=0;" parent="1" source="RCPGzr8Mgh46j4ntfKDq-8" target="RCPGzr8Mgh46j4ntfKDq-12" edge="1">
                    <mxGeometry relative="1" as="geometry">
                        <Array as="points">
                            <mxPoint x="860" y="263"/>
                            <mxPoint x="860" y="443"/>
                        </Array>
                    </mxGeometry>
                </mxCell>
                <mxCell id="7EixQ_AHxUd0FJ97Atet-4" style="edgeStyle=orthogonalEdgeStyle;rounded=0;html=1;exitX=1;exitY=0.5;exitDx=0;exitDy=0;entryX=1;entryY=0.5;entryDx=0;entryDy=0;" edge="1" parent="1" source="RCPGzr8Mgh46j4ntfKDq-8" target="RCPGzr8Mgh46j4ntfKDq-3">
                    <mxGeometry relative="1" as="geometry">
                        <Array as="points">
                            <mxPoint x="860" y="262"/>
                            <mxPoint x="860" y="348"/>
                        </Array>
                    </mxGeometry>
                </mxCell>
                <mxCell id="RCPGzr8Mgh46j4ntfKDq-8" value="Authentication REST API" style="rounded=0;whiteSpace=wrap;html=1;labelBackgroundColor=none;fillColor=#d5e8d4;strokeColor=#82b366;" parent="1" vertex="1">
                    <mxGeometry x="625" y="232.5" width="180" height="60" as="geometry"/>
                </mxCell>
                <mxCell id="RCPGzr8Mgh46j4ntfKDq-12" value="Push notification service" style="rounded=0;whiteSpace=wrap;html=1;labelBackgroundColor=none;fillColor=#d5e8d4;strokeColor=#82b366;" parent="1" vertex="1">
                    <mxGeometry x="625" y="412.5" width="180" height="60" as="geometry"/>
                </mxCell>
                <mxCell id="RCPGzr8Mgh46j4ntfKDq-19" value="" style="group;labelBackgroundColor=none;" parent="1" vertex="1" connectable="0">
                    <mxGeometry x="120" y="202" width="60" height="80" as="geometry"/>
                </mxCell>
                <mxCell id="RCPGzr8Mgh46j4ntfKDq-16" value="" style="shape=actor;whiteSpace=wrap;html=1;labelBackgroundColor=none;" parent="RCPGzr8Mgh46j4ntfKDq-19" vertex="1">
                    <mxGeometry x="10" width="40" height="50" as="geometry"/>
                </mxCell>
                <mxCell id="RCPGzr8Mgh46j4ntfKDq-18" value="User" style="text;html=1;strokeColor=none;fillColor=none;align=center;verticalAlign=middle;whiteSpace=wrap;rounded=0;labelBackgroundColor=none;" parent="RCPGzr8Mgh46j4ntfKDq-19" vertex="1">
                    <mxGeometry y="50" width="60" height="30" as="geometry"/>
                </mxCell>
                <mxCell id="RCPGzr8Mgh46j4ntfKDq-26" value="Mobile Apps" style="text;strokeColor=none;fillColor=none;html=1;fontSize=24;fontStyle=1;verticalAlign=middle;align=center;labelBackgroundColor=none;" parent="1" vertex="1">
                    <mxGeometry x="310" y="130" width="100" height="40" as="geometry"/>
                </mxCell>
                <mxCell id="RCPGzr8Mgh46j4ntfKDq-27" value="Backend Services" style="text;strokeColor=none;fillColor=none;html=1;fontSize=24;fontStyle=1;verticalAlign=middle;align=center;labelBackgroundColor=none;" parent="1" vertex="1">
                    <mxGeometry x="670" y="130" width="100" height="40" as="geometry"/>
                </mxCell>
                <mxCell id="RCPGzr8Mgh46j4ntfKDq-28" value="Admin Web Site" style="rounded=0;whiteSpace=wrap;html=1;labelBackgroundColor=none;fillColor=#dae8fc;strokeColor=#6c8ebf;" parent="1" vertex="1">
                    <mxGeometry x="300" y="446.25" width="120" height="60" as="geometry"/>
                </mxCell>
                <mxCell id="RCPGzr8Mgh46j4ntfKDq-29" value="" style="group;labelBackgroundColor=none;" parent="1" vertex="1" connectable="0">
                    <mxGeometry x="120" y="438.25" width="60" height="80" as="geometry"/>
                </mxCell>
                <mxCell id="RCPGzr8Mgh46j4ntfKDq-30" value="" style="shape=actor;whiteSpace=wrap;html=1;labelBackgroundColor=none;" parent="RCPGzr8Mgh46j4ntfKDq-29" vertex="1">
                    <mxGeometry x="10" width="40" height="50" as="geometry"/>
                </mxCell>
                <mxCell id="RCPGzr8Mgh46j4ntfKDq-31" value="Admin" style="text;html=1;strokeColor=none;fillColor=none;align=center;verticalAlign=middle;whiteSpace=wrap;rounded=0;labelBackgroundColor=none;" parent="RCPGzr8Mgh46j4ntfKDq-29" vertex="1">
                    <mxGeometry y="50" width="60" height="30" as="geometry"/>
                </mxCell>
                <mxCell id="RCPGzr8Mgh46j4ntfKDq-38" value="Sessions" style="shape=cylinder3;whiteSpace=wrap;html=1;boundedLbl=1;backgroundOutline=1;size=15;rounded=0;labelBackgroundColor=none;fillColor=#e1d5e7;strokeColor=#9673a6;" parent="1" vertex="1">
                    <mxGeometry x="1235" y="220" width="110" height="100" as="geometry"/>
                </mxCell>
                <mxCell id="RCPGzr8Mgh46j4ntfKDq-40" value="Users,&lt;br&gt;Movies" style="text;html=1;strokeColor=none;fillColor=none;align=center;verticalAlign=middle;whiteSpace=wrap;rounded=0;labelBackgroundColor=none;" parent="1" vertex="1">
                    <mxGeometry x="1105" y="325" width="60" height="30" as="geometry"/>
                </mxCell>
                <mxCell id="RCPGzr8Mgh46j4ntfKDq-41" value="Tokens" style="text;html=1;strokeColor=none;fillColor=none;align=center;verticalAlign=middle;whiteSpace=wrap;rounded=0;labelBackgroundColor=none;" parent="1" vertex="1">
                    <mxGeometry x="1265" y="325" width="60" height="30" as="geometry"/>
                </mxCell>
                <mxCell id="RCPGzr8Mgh46j4ntfKDq-43" value="Storages" style="text;strokeColor=none;fillColor=none;html=1;fontSize=24;fontStyle=1;verticalAlign=middle;align=center;labelBackgroundColor=none;" parent="1" vertex="1">
                    <mxGeometry x="1154" y="127" width="100" height="40" as="geometry"/>
                </mxCell>
                <mxCell id="RCPGzr8Mgh46j4ntfKDq-44" value="Message Broker" style="shape=step;perimeter=stepPerimeter;whiteSpace=wrap;html=1;fixedSize=1;labelBackgroundColor=none;fillColor=#e1d5e7;strokeColor=#9673a6;" parent="1" vertex="1">
                    <mxGeometry x="1050" y="395" width="170" height="80" as="geometry"/>
                </mxCell>
                <mxCell id="RCPGzr8Mgh46j4ntfKDq-47" value="File Storage" style="sketch=0;outlineConnect=0;strokeColor=#9673a6;dashed=0;verticalLabelPosition=bottom;verticalAlign=top;align=center;html=1;fontSize=12;fontStyle=0;aspect=fixed;pointerEvents=1;shape=mxgraph.aws4.folder;labelBackgroundColor=none;fillColor=#e1d5e7;" parent="1" vertex="1">
                    <mxGeometry x="1268" y="405" width="78" height="71" as="geometry"/>
                </mxCell>
                <mxCell id="RCPGzr8Mgh46j4ntfKDq-50" value="App for IOS (Swift)" style="text;html=1;align=center;verticalAlign=middle;resizable=0;points=[];autosize=1;strokeColor=none;fillColor=none;labelBackgroundColor=none;" parent="1" vertex="1">
                    <mxGeometry x="300" y="310" width="120" height="30" as="geometry"/>
                </mxCell>
                <mxCell id="RCPGzr8Mgh46j4ntfKDq-51" value="Python, Django" style="text;html=1;align=center;verticalAlign=middle;resizable=0;points=[];autosize=1;strokeColor=none;fillColor=none;labelBackgroundColor=none;" parent="1" vertex="1">
                    <mxGeometry x="665" y="555" width="110" height="30" as="geometry"/>
                </mxCell>
                <mxCell id="RCPGzr8Mgh46j4ntfKDq-54" value="Web Sites" style="text;strokeColor=none;fillColor=none;html=1;fontSize=24;fontStyle=1;verticalAlign=middle;align=center;labelBackgroundColor=none;" parent="1" vertex="1">
                    <mxGeometry x="310" y="362.5" width="100" height="40" as="geometry"/>
                </mxCell>
                <mxCell id="RCPGzr8Mgh46j4ntfKDq-55" style="edgeStyle=none;rounded=0;orthogonalLoop=1;jettySize=auto;html=1;exitX=1;exitY=0.75;exitDx=0;exitDy=0;entryX=0;entryY=0.5;entryDx=0;entryDy=0;labelBackgroundColor=none;fontColor=default;" parent="1" source="RCPGzr8Mgh46j4ntfKDq-16" target="RCPGzr8Mgh46j4ntfKDq-25" edge="1">
                    <mxGeometry relative="1" as="geometry"/>
                </mxCell>
                <mxCell id="RCPGzr8Mgh46j4ntfKDq-56" style="edgeStyle=none;rounded=0;orthogonalLoop=1;jettySize=auto;html=1;exitX=1;exitY=0.75;exitDx=0;exitDy=0;entryX=0;entryY=0.5;entryDx=0;entryDy=0;labelBackgroundColor=none;fontColor=default;" parent="1" source="RCPGzr8Mgh46j4ntfKDq-30" target="RCPGzr8Mgh46j4ntfKDq-52" edge="1">
                    <mxGeometry relative="1" as="geometry"/>
                </mxCell>
                <mxCell id="RCPGzr8Mgh46j4ntfKDq-62" value="HTML5, Bootstrap" style="text;html=1;strokeColor=none;fillColor=none;align=center;verticalAlign=middle;whiteSpace=wrap;rounded=0;labelBackgroundColor=none;" parent="1" vertex="1">
                    <mxGeometry x="330" y="555" width="60" height="30" as="geometry"/>
                </mxCell>
                <mxCell id="RCPGzr8Mgh46j4ntfKDq-69" value="" style="rounded=0;whiteSpace=wrap;html=1;labelBackgroundColor=none;" parent="1" vertex="1">
                    <mxGeometry x="1097" y="620" width="226" height="190" as="geometry"/>
                </mxCell>
                <mxCell id="RCPGzr8Mgh46j4ntfKDq-70" value="External services" style="text;strokeColor=none;fillColor=none;html=1;fontSize=24;fontStyle=1;verticalAlign=middle;align=center;labelBackgroundColor=none;" parent="1" vertex="1">
                    <mxGeometry x="1174" y="580" width="100" height="40" as="geometry"/>
                </mxCell>
                <mxCell id="RCPGzr8Mgh46j4ntfKDq-71" value="Kinopoisk" style="rounded=0;whiteSpace=wrap;html=1;fillColor=#ffe6cc;strokeColor=#d79b00;" parent="1" vertex="1">
                    <mxGeometry x="1150" y="640" width="120" height="60" as="geometry"/>
                </mxCell>
                <mxCell id="RCPGzr8Mgh46j4ntfKDq-73" value="API для получения списка фильмов, описания, оценок" style="text;html=1;strokeColor=none;fillColor=none;align=center;verticalAlign=middle;whiteSpace=wrap;rounded=0;" parent="1" vertex="1">
                    <mxGeometry x="1121.25" y="715" width="177.5" height="55" as="geometry"/>
                </mxCell>
            </root>
        </mxGraphModel>
    </diagram>
    <diagram id="sbg8HjcU9sPFlMjaBId3" name="Общая схема процесса">
        <mxGraphModel dx="777" dy="1027" grid="1" gridSize="10" guides="1" tooltips="1" connect="1" arrows="1" fold="1" page="1" pageScale="1" pageWidth="1654" pageHeight="1169" math="0" shadow="0">
            <root>
                <mxCell id="0"/>
                <mxCell id="1" parent="0"/>
                <mxCell id="V-I7qAP9LsP3Rdu8fm_j-8" style="edgeStyle=orthogonalEdgeStyle;rounded=0;orthogonalLoop=1;jettySize=auto;html=1;exitX=0.5;exitY=1;exitDx=0;exitDy=0;entryX=0.5;entryY=0;entryDx=0;entryDy=0;" parent="1" source="xgPKeKpPYLlEDN4hSKPi-2" target="V-I7qAP9LsP3Rdu8fm_j-2" edge="1">
                    <mxGeometry relative="1" as="geometry"/>
                </mxCell>
                <mxCell id="xgPKeKpPYLlEDN4hSKPi-2" value="GAME_CREATED" style="rounded=0;whiteSpace=wrap;html=1;fillColor=#dae8fc;strokeColor=#6c8ebf;" parent="1" vertex="1">
                    <mxGeometry x="280" y="150" width="200" height="80" as="geometry"/>
                </mxCell>
                <mxCell id="V-I7qAP9LsP3Rdu8fm_j-9" style="edgeStyle=orthogonalEdgeStyle;rounded=0;orthogonalLoop=1;jettySize=auto;html=1;exitX=0.5;exitY=1;exitDx=0;exitDy=0;entryX=0.5;entryY=0;entryDx=0;entryDy=0;" parent="1" source="V-I7qAP9LsP3Rdu8fm_j-2" target="V-I7qAP9LsP3Rdu8fm_j-3" edge="1">
                    <mxGeometry relative="1" as="geometry"/>
                </mxCell>
                <mxCell id="V-I7qAP9LsP3Rdu8fm_j-2" value="SEND_INVITE" style="rounded=0;whiteSpace=wrap;html=1;fillColor=#dae8fc;strokeColor=#6c8ebf;" parent="1" vertex="1">
                    <mxGeometry x="280" y="270" width="200" height="80" as="geometry"/>
                </mxCell>
                <mxCell id="V-I7qAP9LsP3Rdu8fm_j-10" style="edgeStyle=orthogonalEdgeStyle;rounded=0;orthogonalLoop=1;jettySize=auto;html=1;exitX=0.5;exitY=1;exitDx=0;exitDy=0;entryX=0.5;entryY=0;entryDx=0;entryDy=0;" parent="1" source="V-I7qAP9LsP3Rdu8fm_j-3" target="V-I7qAP9LsP3Rdu8fm_j-4" edge="1">
                    <mxGeometry relative="1" as="geometry"/>
                </mxCell>
                <mxCell id="V-I7qAP9LsP3Rdu8fm_j-3" value="INVITE_ACCEPTED" style="rounded=0;whiteSpace=wrap;html=1;fillColor=#dae8fc;strokeColor=#6c8ebf;" parent="1" vertex="1">
                    <mxGeometry x="280" y="390" width="200" height="80" as="geometry"/>
                </mxCell>
                <mxCell id="yZPLEhsgwz559z-yYO5_-28" style="edgeStyle=orthogonalEdgeStyle;rounded=0;orthogonalLoop=1;jettySize=auto;html=1;exitX=0.5;exitY=1;exitDx=0;exitDy=0;entryX=0.5;entryY=0;entryDx=0;entryDy=0;entryPerimeter=0;" parent="1" source="V-I7qAP9LsP3Rdu8fm_j-4" target="yZPLEhsgwz559z-yYO5_-25" edge="1">
                    <mxGeometry relative="1" as="geometry"/>
                </mxCell>
                <mxCell id="V-I7qAP9LsP3Rdu8fm_j-4" value="FILMS_LOADED" style="rounded=0;whiteSpace=wrap;html=1;fillColor=#d5e8d4;strokeColor=#82b366;" parent="1" vertex="1">
                    <mxGeometry x="280" y="510" width="200" height="80" as="geometry"/>
                </mxCell>
                <mxCell id="yZPLEhsgwz559z-yYO5_-34" style="edgeStyle=orthogonalEdgeStyle;rounded=0;orthogonalLoop=1;jettySize=auto;html=1;exitX=0.5;exitY=1;exitDx=0;exitDy=0;entryX=0.5;entryY=0;entryDx=0;entryDy=0;entryPerimeter=0;" parent="1" source="V-I7qAP9LsP3Rdu8fm_j-5" target="yZPLEhsgwz559z-yYO5_-33" edge="1">
                    <mxGeometry relative="1" as="geometry"/>
                </mxCell>
                <mxCell id="V-I7qAP9LsP3Rdu8fm_j-5" value="FILM_ACCEPT" style="rounded=0;whiteSpace=wrap;html=1;fillColor=#dae8fc;strokeColor=#6c8ebf;" parent="1" vertex="1">
                    <mxGeometry x="280" y="785" width="200" height="80" as="geometry"/>
                </mxCell>
                <mxCell id="Ux0LTLL-H-GUJU3IFmcZ-3" style="edgeStyle=orthogonalEdgeStyle;rounded=0;orthogonalLoop=1;jettySize=auto;html=1;exitX=0.5;exitY=1;exitDx=0;exitDy=0;entryX=0.5;entryY=0;entryDx=0;entryDy=0;" parent="1" source="V-I7qAP9LsP3Rdu8fm_j-7" target="Ux0LTLL-H-GUJU3IFmcZ-2" edge="1">
                    <mxGeometry relative="1" as="geometry"/>
                </mxCell>
                <mxCell id="V-I7qAP9LsP3Rdu8fm_j-7" value="FILM_MATCHED (Отдельная таблица с игроком)" style="rounded=0;whiteSpace=wrap;html=1;fillColor=#d5e8d4;strokeColor=#82b366;" parent="1" vertex="1">
                    <mxGeometry x="280" y="1025" width="200" height="80" as="geometry"/>
                </mxCell>
                <mxCell id="yZPLEhsgwz559z-yYO5_-2" style="edgeStyle=orthogonalEdgeStyle;rounded=0;orthogonalLoop=1;jettySize=auto;html=1;exitX=0.5;exitY=0;exitDx=0;exitDy=0;entryX=0.5;entryY=1;entryDx=0;entryDy=0;startArrow=classic;startFill=1;endArrow=none;endFill=0;" parent="1" source="yZPLEhsgwz559z-yYO5_-1" target="V-I7qAP9LsP3Rdu8fm_j-2" edge="1">
                    <mxGeometry relative="1" as="geometry"/>
                </mxCell>
                <mxCell id="yZPLEhsgwz559z-yYO5_-37" style="edgeStyle=orthogonalEdgeStyle;rounded=0;orthogonalLoop=1;jettySize=auto;html=1;exitX=0.5;exitY=1;exitDx=0;exitDy=0;entryX=1;entryY=0.5;entryDx=0;entryDy=0;" parent="1" source="yZPLEhsgwz559z-yYO5_-1" target="V-I7qAP9LsP3Rdu8fm_j-7" edge="1">
                    <mxGeometry relative="1" as="geometry">
                        <Array as="points">
                            <mxPoint x="660" y="510"/>
                            <mxPoint x="840" y="510"/>
                            <mxPoint x="840" y="1065"/>
                        </Array>
                    </mxGeometry>
                </mxCell>
                <mxCell id="yZPLEhsgwz559z-yYO5_-1" value="INVITE_DECLINED" style="rounded=0;whiteSpace=wrap;html=1;fillColor=#dae8fc;strokeColor=#6c8ebf;" parent="1" vertex="1">
                    <mxGeometry x="560" y="390" width="200" height="80" as="geometry"/>
                </mxCell>
                <mxCell id="yZPLEhsgwz559z-yYO5_-31" style="edgeStyle=orthogonalEdgeStyle;rounded=0;orthogonalLoop=1;jettySize=auto;html=1;exitX=1;exitY=0.5;exitDx=0;exitDy=0;entryX=0.5;entryY=0;entryDx=0;entryDy=0;entryPerimeter=0;" parent="1" source="yZPLEhsgwz559z-yYO5_-4" target="yZPLEhsgwz559z-yYO5_-25" edge="1">
                    <mxGeometry relative="1" as="geometry">
                        <Array as="points">
                            <mxPoint x="800" y="825"/>
                            <mxPoint x="800" y="630"/>
                            <mxPoint x="380" y="630"/>
                        </Array>
                    </mxGeometry>
                </mxCell>
                <mxCell id="yZPLEhsgwz559z-yYO5_-4" value="FILM_DECLINE" style="rounded=0;whiteSpace=wrap;html=1;fillColor=#dae8fc;strokeColor=#6c8ebf;" parent="1" vertex="1">
                    <mxGeometry x="560" y="785" width="200" height="80" as="geometry"/>
                </mxCell>
                <mxCell id="yZPLEhsgwz559z-yYO5_-26" style="edgeStyle=orthogonalEdgeStyle;rounded=0;orthogonalLoop=1;jettySize=auto;html=1;exitX=0.5;exitY=1;exitDx=0;exitDy=0;exitPerimeter=0;entryX=0.5;entryY=0;entryDx=0;entryDy=0;" parent="1" source="yZPLEhsgwz559z-yYO5_-25" target="V-I7qAP9LsP3Rdu8fm_j-5" edge="1">
                    <mxGeometry relative="1" as="geometry"/>
                </mxCell>
                <mxCell id="yZPLEhsgwz559z-yYO5_-27" style="edgeStyle=orthogonalEdgeStyle;rounded=0;orthogonalLoop=1;jettySize=auto;html=1;exitX=1;exitY=0.5;exitDx=0;exitDy=0;exitPerimeter=0;entryX=0.5;entryY=0;entryDx=0;entryDy=0;" parent="1" source="yZPLEhsgwz559z-yYO5_-25" target="yZPLEhsgwz559z-yYO5_-4" edge="1">
                    <mxGeometry relative="1" as="geometry"/>
                </mxCell>
                <mxCell id="yZPLEhsgwz559z-yYO5_-25" value="FILM_SUGGEST" style="strokeWidth=2;html=1;shape=mxgraph.flowchart.decision;whiteSpace=wrap;fillColor=#d5e8d4;strokeColor=#82b366;" parent="1" vertex="1">
                    <mxGeometry x="280" y="655" width="200" height="85" as="geometry"/>
                </mxCell>
                <mxCell id="yZPLEhsgwz559z-yYO5_-35" style="edgeStyle=orthogonalEdgeStyle;rounded=0;orthogonalLoop=1;jettySize=auto;html=1;exitX=0.5;exitY=1;exitDx=0;exitDy=0;exitPerimeter=0;entryX=0.5;entryY=0;entryDx=0;entryDy=0;" parent="1" source="yZPLEhsgwz559z-yYO5_-33" target="V-I7qAP9LsP3Rdu8fm_j-7" edge="1">
                    <mxGeometry relative="1" as="geometry"/>
                </mxCell>
                <mxCell id="yZPLEhsgwz559z-yYO5_-36" style="edgeStyle=orthogonalEdgeStyle;rounded=0;orthogonalLoop=1;jettySize=auto;html=1;exitX=0;exitY=0.5;exitDx=0;exitDy=0;exitPerimeter=0;entryX=0.5;entryY=0;entryDx=0;entryDy=0;entryPerimeter=0;" parent="1" source="yZPLEhsgwz559z-yYO5_-33" target="yZPLEhsgwz559z-yYO5_-25" edge="1">
                    <mxGeometry relative="1" as="geometry">
                        <Array as="points">
                            <mxPoint x="160" y="952"/>
                            <mxPoint x="160" y="630"/>
                            <mxPoint x="380" y="630"/>
                        </Array>
                    </mxGeometry>
                </mxCell>
                <mxCell id="Ux0LTLL-H-GUJU3IFmcZ-1" value="" style="edgeStyle=orthogonalEdgeStyle;rounded=0;orthogonalLoop=1;jettySize=auto;html=1;" parent="1" source="yZPLEhsgwz559z-yYO5_-33" target="V-I7qAP9LsP3Rdu8fm_j-7" edge="1">
                    <mxGeometry relative="1" as="geometry"/>
                </mxCell>
                <mxCell id="yZPLEhsgwz559z-yYO5_-33" value="FILM_MATCH (3)" style="strokeWidth=2;html=1;shape=mxgraph.flowchart.decision;whiteSpace=wrap;fillColor=#d5e8d4;strokeColor=#82b366;" parent="1" vertex="1">
                    <mxGeometry x="280" y="910" width="200" height="85" as="geometry"/>
                </mxCell>
                <mxCell id="Ux0LTLL-H-GUJU3IFmcZ-2" value="GAME_FINISHED" style="rounded=0;whiteSpace=wrap;html=1;fillColor=#d5e8d4;strokeColor=#82b366;" parent="1" vertex="1">
                    <mxGeometry x="280" y="1170" width="200" height="80" as="geometry"/>
                </mxCell>
            </root>
        </mxGraphModel>
    </diagram>
    <diagram id="4j4C7tQ-m2ciFjOAkDGw" name="Детальная схема приложения">
        <mxGraphModel dx="971" dy="1284" grid="1" gridSize="10" guides="1" tooltips="1" connect="1" arrows="1" fold="1" page="1" pageScale="1" pageWidth="1654" pageHeight="1169" math="0" shadow="0">
            <root>
                <mxCell id="0"/>
                <mxCell id="1" parent="0"/>
                <mxCell id="eRO7rc76Z34MsB3wAXdZ-7" style="edgeStyle=orthogonalEdgeStyle;rounded=0;html=1;exitX=0.5;exitY=1;exitDx=0;exitDy=0;entryX=0.5;entryY=0;entryDx=0;entryDy=0;" edge="1" parent="1" source="1kAY908PolTjdWO0X1TP-1" target="1kAY908PolTjdWO0X1TP-2">
                    <mxGeometry relative="1" as="geometry"/>
                </mxCell>
                <mxCell id="eRO7rc76Z34MsB3wAXdZ-8" style="edgeStyle=orthogonalEdgeStyle;rounded=0;html=1;exitX=0.5;exitY=1;exitDx=0;exitDy=0;entryX=0.5;entryY=0;entryDx=0;entryDy=0;" edge="1" parent="1" source="1kAY908PolTjdWO0X1TP-1" target="eRO7rc76Z34MsB3wAXdZ-6">
                    <mxGeometry relative="1" as="geometry"/>
                </mxCell>
                <mxCell id="1kAY908PolTjdWO0X1TP-1" value="Player1" style="text;strokeColor=none;fillColor=none;html=1;fontSize=24;fontStyle=1;verticalAlign=middle;align=center;" vertex="1" parent="1">
                    <mxGeometry x="260" y="30" width="100" height="40" as="geometry"/>
                </mxCell>
                <mxCell id="eRO7rc76Z34MsB3wAXdZ-1" style="edgeStyle=orthogonalEdgeStyle;rounded=0;html=1;exitX=0.5;exitY=1;exitDx=0;exitDy=0;entryX=0.5;entryY=0;entryDx=0;entryDy=0;" edge="1" parent="1" source="1kAY908PolTjdWO0X1TP-2" target="WCAdwR6EgvI5Qgp7tNI9-3">
                    <mxGeometry relative="1" as="geometry"/>
                </mxCell>
                <mxCell id="1kAY908PolTjdWO0X1TP-2" value="Create game" style="rounded=0;whiteSpace=wrap;html=1;fillColor=#dae8fc;strokeColor=#6c8ebf;" vertex="1" parent="1">
                    <mxGeometry x="140" y="120" width="160" height="50" as="geometry"/>
                </mxCell>
                <mxCell id="eRO7rc76Z34MsB3wAXdZ-10" style="edgeStyle=orthogonalEdgeStyle;rounded=0;html=1;exitX=0.5;exitY=1;exitDx=0;exitDy=0;entryX=0.5;entryY=0;entryDx=0;entryDy=0;" edge="1" parent="1" source="WCAdwR6EgvI5Qgp7tNI9-2" target="eRO7rc76Z34MsB3wAXdZ-9">
                    <mxGeometry relative="1" as="geometry"/>
                </mxCell>
                <mxCell id="WCAdwR6EgvI5Qgp7tNI9-2" value="Filter films" style="rounded=0;whiteSpace=wrap;html=1;fillColor=#dae8fc;strokeColor=#6c8ebf;" vertex="1" parent="1">
                    <mxGeometry x="140" y="340" width="160" height="50" as="geometry"/>
                </mxCell>
                <mxCell id="eRO7rc76Z34MsB3wAXdZ-3" style="edgeStyle=orthogonalEdgeStyle;rounded=0;html=1;exitX=0.5;exitY=1;exitDx=0;exitDy=0;entryX=0.5;entryY=0;entryDx=0;entryDy=0;" edge="1" parent="1" source="WCAdwR6EgvI5Qgp7tNI9-3" target="WCAdwR6EgvI5Qgp7tNI9-2">
                    <mxGeometry relative="1" as="geometry"/>
                </mxCell>
                <mxCell id="WCAdwR6EgvI5Qgp7tNI9-3" value="External Film storage" style="rounded=0;whiteSpace=wrap;html=1;fillColor=#ffe6cc;strokeColor=#d79b00;" vertex="1" parent="1">
                    <mxGeometry x="140" y="230" width="160" height="50" as="geometry"/>
                </mxCell>
                <mxCell id="eRO7rc76Z34MsB3wAXdZ-2" value="API Request" style="text;html=1;align=center;verticalAlign=middle;resizable=0;points=[];autosize=1;strokeColor=none;fillColor=none;" vertex="1" parent="1">
                    <mxGeometry x="230" y="185" width="90" height="30" as="geometry"/>
                </mxCell>
                <mxCell id="eRO7rc76Z34MsB3wAXdZ-15" style="edgeStyle=orthogonalEdgeStyle;rounded=0;html=1;exitX=0.5;exitY=1;exitDx=0;exitDy=0;endArrow=none;endFill=0;" edge="1" parent="1" source="eRO7rc76Z34MsB3wAXdZ-4">
                    <mxGeometry relative="1" as="geometry">
                        <mxPoint x="800.3478260869567" y="89.99999999999989" as="targetPoint"/>
                    </mxGeometry>
                </mxCell>
                <mxCell id="eRO7rc76Z34MsB3wAXdZ-4" value="Player2" style="text;strokeColor=none;fillColor=none;html=1;fontSize=24;fontStyle=1;verticalAlign=middle;align=center;" vertex="1" parent="1">
                    <mxGeometry x="750" y="30" width="100" height="40" as="geometry"/>
                </mxCell>
                <mxCell id="eRO7rc76Z34MsB3wAXdZ-6" value="Connect to the game" style="rounded=0;whiteSpace=wrap;html=1;fillColor=#dae8fc;strokeColor=#6c8ebf;" vertex="1" parent="1">
                    <mxGeometry x="350" y="120" width="160" height="50" as="geometry"/>
                </mxCell>
                <mxCell id="eRO7rc76Z34MsB3wAXdZ-16" style="edgeStyle=orthogonalEdgeStyle;rounded=0;html=1;exitX=0.5;exitY=1;exitDx=0;exitDy=0;entryX=0.5;entryY=1;entryDx=0;entryDy=0;endArrow=none;endFill=0;startArrow=classic;startFill=1;" edge="1" parent="1" source="eRO7rc76Z34MsB3wAXdZ-9" target="eRO7rc76Z34MsB3wAXdZ-14">
                    <mxGeometry relative="1" as="geometry">
                        <Array as="points">
                            <mxPoint x="220" y="520"/>
                            <mxPoint x="905" y="520"/>
                        </Array>
                    </mxGeometry>
                </mxCell>
                <mxCell id="eRO7rc76Z34MsB3wAXdZ-9" value="Game_created" style="rounded=0;whiteSpace=wrap;html=1;fillColor=#d5e8d4;strokeColor=#82b366;" vertex="1" parent="1">
                    <mxGeometry x="140" y="450" width="160" height="50" as="geometry"/>
                </mxCell>
                <mxCell id="eRO7rc76Z34MsB3wAXdZ-11" style="edgeStyle=orthogonalEdgeStyle;rounded=0;html=1;exitX=0.5;exitY=1;exitDx=0;exitDy=0;entryX=0.5;entryY=0;entryDx=0;entryDy=0;" edge="1" parent="1" target="eRO7rc76Z34MsB3wAXdZ-13">
                    <mxGeometry relative="1" as="geometry">
                        <mxPoint x="785" y="84.99999999999989" as="sourcePoint"/>
                    </mxGeometry>
                </mxCell>
                <mxCell id="eRO7rc76Z34MsB3wAXdZ-12" style="edgeStyle=orthogonalEdgeStyle;rounded=0;html=1;exitX=0.5;exitY=1;exitDx=0;exitDy=0;entryX=0.5;entryY=0;entryDx=0;entryDy=0;" edge="1" parent="1" target="eRO7rc76Z34MsB3wAXdZ-14">
                    <mxGeometry relative="1" as="geometry">
                        <mxPoint x="785" y="84.99999999999989" as="sourcePoint"/>
                    </mxGeometry>
                </mxCell>
                <mxCell id="eRO7rc76Z34MsB3wAXdZ-13" value="Create game" style="rounded=0;whiteSpace=wrap;html=1;fillColor=#dae8fc;strokeColor=#6c8ebf;" vertex="1" parent="1">
                    <mxGeometry x="615" y="135" width="160" height="50" as="geometry"/>
                </mxCell>
                <mxCell id="eRO7rc76Z34MsB3wAXdZ-14" value="Connect to the game" style="rounded=0;whiteSpace=wrap;html=1;fillColor=#dae8fc;strokeColor=#6c8ebf;" vertex="1" parent="1">
                    <mxGeometry x="825" y="135" width="160" height="50" as="geometry"/>
                </mxCell>
            </root>
        </mxGraphModel>
    </diagram>
    <diagram id="qMnoKdWAKGGUlmcINN4D" name="Схема БД">
        <mxGraphModel dx="777" dy="1027" grid="1" gridSize="10" guides="1" tooltips="1" connect="1" arrows="1" fold="1" page="1" pageScale="1" pageWidth="1654" pageHeight="1169" math="0" shadow="0">
            <root>
                <mxCell id="0"/>
                <mxCell id="1" parent="0"/>
                <mxCell id="Ujwy5-n2hMPKuP97srHc-14" value="Users" style="shape=table;startSize=30;container=1;collapsible=1;childLayout=tableLayout;fixedRows=1;rowLines=0;fontStyle=1;align=center;resizeLast=1;html=1;" parent="1" vertex="1">
                    <mxGeometry x="170" y="98" width="180" height="182" as="geometry">
                        <mxRectangle x="260" y="98" width="70" height="30" as="alternateBounds"/>
                    </mxGeometry>
                </mxCell>
                <mxCell id="Ujwy5-n2hMPKuP97srHc-15" value="" style="shape=tableRow;horizontal=0;startSize=0;swimlaneHead=0;swimlaneBody=0;fillColor=none;collapsible=0;dropTarget=0;points=[[0,0.5],[1,0.5]];portConstraint=eastwest;top=0;left=0;right=0;bottom=1;" parent="Ujwy5-n2hMPKuP97srHc-14" vertex="1">
                    <mxGeometry y="30" width="180" height="30" as="geometry"/>
                </mxCell>
                <mxCell id="Ujwy5-n2hMPKuP97srHc-16" value="PK" style="shape=partialRectangle;connectable=0;fillColor=none;top=0;left=0;bottom=0;right=0;fontStyle=1;overflow=hidden;whiteSpace=wrap;html=1;" parent="Ujwy5-n2hMPKuP97srHc-15" vertex="1">
                    <mxGeometry width="30" height="30" as="geometry">
                        <mxRectangle width="30" height="30" as="alternateBounds"/>
                    </mxGeometry>
                </mxCell>
                <mxCell id="Ujwy5-n2hMPKuP97srHc-17" value="ID" style="shape=partialRectangle;connectable=0;fillColor=none;top=0;left=0;bottom=0;right=0;align=left;spacingLeft=6;fontStyle=5;overflow=hidden;whiteSpace=wrap;html=1;" parent="Ujwy5-n2hMPKuP97srHc-15" vertex="1">
                    <mxGeometry x="30" width="150" height="30" as="geometry">
                        <mxRectangle width="150" height="30" as="alternateBounds"/>
                    </mxGeometry>
                </mxCell>
                <mxCell id="Ujwy5-n2hMPKuP97srHc-18" value="" style="shape=tableRow;horizontal=0;startSize=0;swimlaneHead=0;swimlaneBody=0;fillColor=none;collapsible=0;dropTarget=0;points=[[0,0.5],[1,0.5]];portConstraint=eastwest;top=0;left=0;right=0;bottom=0;" parent="Ujwy5-n2hMPKuP97srHc-14" vertex="1">
                    <mxGeometry y="60" width="180" height="30" as="geometry"/>
                </mxCell>
                <mxCell id="Ujwy5-n2hMPKuP97srHc-19" value="" style="shape=partialRectangle;connectable=0;fillColor=none;top=0;left=0;bottom=0;right=0;editable=1;overflow=hidden;whiteSpace=wrap;html=1;" parent="Ujwy5-n2hMPKuP97srHc-18" vertex="1">
                    <mxGeometry width="30" height="30" as="geometry">
                        <mxRectangle width="30" height="30" as="alternateBounds"/>
                    </mxGeometry>
                </mxCell>
                <mxCell id="Ujwy5-n2hMPKuP97srHc-20" value="nick" style="shape=partialRectangle;connectable=0;fillColor=none;top=0;left=0;bottom=0;right=0;align=left;spacingLeft=6;overflow=hidden;whiteSpace=wrap;html=1;" parent="Ujwy5-n2hMPKuP97srHc-18" vertex="1">
                    <mxGeometry x="30" width="150" height="30" as="geometry">
                        <mxRectangle width="150" height="30" as="alternateBounds"/>
                    </mxGeometry>
                </mxCell>
                <mxCell id="Ujwy5-n2hMPKuP97srHc-21" value="" style="shape=tableRow;horizontal=0;startSize=0;swimlaneHead=0;swimlaneBody=0;fillColor=none;collapsible=0;dropTarget=0;points=[[0,0.5],[1,0.5]];portConstraint=eastwest;top=0;left=0;right=0;bottom=0;" parent="Ujwy5-n2hMPKuP97srHc-14" vertex="1">
                    <mxGeometry y="90" width="180" height="32" as="geometry"/>
                </mxCell>
                <mxCell id="Ujwy5-n2hMPKuP97srHc-22" value="" style="shape=partialRectangle;connectable=0;fillColor=none;top=0;left=0;bottom=0;right=0;editable=1;overflow=hidden;whiteSpace=wrap;html=1;" parent="Ujwy5-n2hMPKuP97srHc-21" vertex="1">
                    <mxGeometry width="30" height="32" as="geometry">
                        <mxRectangle width="30" height="32" as="alternateBounds"/>
                    </mxGeometry>
                </mxCell>
                <mxCell id="Ujwy5-n2hMPKuP97srHc-23" value="e-mail" style="shape=partialRectangle;connectable=0;fillColor=none;top=0;left=0;bottom=0;right=0;align=left;spacingLeft=6;overflow=hidden;whiteSpace=wrap;html=1;" parent="Ujwy5-n2hMPKuP97srHc-21" vertex="1">
                    <mxGeometry x="30" width="150" height="32" as="geometry">
                        <mxRectangle width="150" height="32" as="alternateBounds"/>
                    </mxGeometry>
                </mxCell>
                <mxCell id="Ujwy5-n2hMPKuP97srHc-24" value="" style="shape=tableRow;horizontal=0;startSize=0;swimlaneHead=0;swimlaneBody=0;fillColor=none;collapsible=0;dropTarget=0;points=[[0,0.5],[1,0.5]];portConstraint=eastwest;top=0;left=0;right=0;bottom=0;" parent="Ujwy5-n2hMPKuP97srHc-14" vertex="1">
                    <mxGeometry y="122" width="180" height="30" as="geometry"/>
                </mxCell>
                <mxCell id="Ujwy5-n2hMPKuP97srHc-25" value="" style="shape=partialRectangle;connectable=0;fillColor=none;top=0;left=0;bottom=0;right=0;editable=1;overflow=hidden;whiteSpace=wrap;html=1;" parent="Ujwy5-n2hMPKuP97srHc-24" vertex="1">
                    <mxGeometry width="30" height="30" as="geometry">
                        <mxRectangle width="30" height="30" as="alternateBounds"/>
                    </mxGeometry>
                </mxCell>
                <mxCell id="Ujwy5-n2hMPKuP97srHc-26" value="name" style="shape=partialRectangle;connectable=0;fillColor=none;top=0;left=0;bottom=0;right=0;align=left;spacingLeft=6;overflow=hidden;whiteSpace=wrap;html=1;" parent="Ujwy5-n2hMPKuP97srHc-24" vertex="1">
                    <mxGeometry x="30" width="150" height="30" as="geometry">
                        <mxRectangle width="150" height="30" as="alternateBounds"/>
                    </mxGeometry>
                </mxCell>
                <mxCell id="i0uG_HZAxRgXzBT5FhW3-17" value="" style="shape=tableRow;horizontal=0;startSize=0;swimlaneHead=0;swimlaneBody=0;fillColor=none;collapsible=0;dropTarget=0;points=[[0,0.5],[1,0.5]];portConstraint=eastwest;top=0;left=0;right=0;bottom=0;" parent="Ujwy5-n2hMPKuP97srHc-14" vertex="1">
                    <mxGeometry y="152" width="180" height="30" as="geometry"/>
                </mxCell>
                <mxCell id="i0uG_HZAxRgXzBT5FhW3-18" value="" style="shape=partialRectangle;connectable=0;fillColor=none;top=0;left=0;bottom=0;right=0;editable=1;overflow=hidden;whiteSpace=wrap;html=1;" parent="i0uG_HZAxRgXzBT5FhW3-17" vertex="1">
                    <mxGeometry width="30" height="30" as="geometry">
                        <mxRectangle width="30" height="30" as="alternateBounds"/>
                    </mxGeometry>
                </mxCell>
                <mxCell id="i0uG_HZAxRgXzBT5FhW3-19" value="password" style="shape=partialRectangle;connectable=0;fillColor=none;top=0;left=0;bottom=0;right=0;align=left;spacingLeft=6;overflow=hidden;whiteSpace=wrap;html=1;" parent="i0uG_HZAxRgXzBT5FhW3-17" vertex="1">
                    <mxGeometry x="30" width="150" height="30" as="geometry">
                        <mxRectangle width="150" height="30" as="alternateBounds"/>
                    </mxGeometry>
                </mxCell>
                <mxCell id="i0uG_HZAxRgXzBT5FhW3-1" value="Films" style="shape=table;startSize=30;container=1;collapsible=1;childLayout=tableLayout;fixedRows=1;rowLines=0;fontStyle=1;align=center;resizeLast=1;html=1;" parent="1" vertex="1">
                    <mxGeometry x="630" y="98" width="180" height="210" as="geometry">
                        <mxRectangle x="260" y="98" width="70" height="30" as="alternateBounds"/>
                    </mxGeometry>
                </mxCell>
                <mxCell id="i0uG_HZAxRgXzBT5FhW3-2" value="" style="shape=tableRow;horizontal=0;startSize=0;swimlaneHead=0;swimlaneBody=0;fillColor=none;collapsible=0;dropTarget=0;points=[[0,0.5],[1,0.5]];portConstraint=eastwest;top=0;left=0;right=0;bottom=1;" parent="i0uG_HZAxRgXzBT5FhW3-1" vertex="1">
                    <mxGeometry y="30" width="180" height="31" as="geometry"/>
                </mxCell>
                <mxCell id="i0uG_HZAxRgXzBT5FhW3-3" value="PK" style="shape=partialRectangle;connectable=0;fillColor=none;top=0;left=0;bottom=0;right=0;fontStyle=1;overflow=hidden;whiteSpace=wrap;html=1;" parent="i0uG_HZAxRgXzBT5FhW3-2" vertex="1">
                    <mxGeometry width="30" height="31" as="geometry">
                        <mxRectangle width="30" height="31" as="alternateBounds"/>
                    </mxGeometry>
                </mxCell>
                <mxCell id="i0uG_HZAxRgXzBT5FhW3-4" value="ID" style="shape=partialRectangle;connectable=0;fillColor=none;top=0;left=0;bottom=0;right=0;align=left;spacingLeft=6;fontStyle=5;overflow=hidden;whiteSpace=wrap;html=1;" parent="i0uG_HZAxRgXzBT5FhW3-2" vertex="1">
                    <mxGeometry x="30" width="150" height="31" as="geometry">
                        <mxRectangle width="150" height="31" as="alternateBounds"/>
                    </mxGeometry>
                </mxCell>
                <mxCell id="i0uG_HZAxRgXzBT5FhW3-5" value="" style="shape=tableRow;horizontal=0;startSize=0;swimlaneHead=0;swimlaneBody=0;fillColor=none;collapsible=0;dropTarget=0;points=[[0,0.5],[1,0.5]];portConstraint=eastwest;top=0;left=0;right=0;bottom=0;" parent="i0uG_HZAxRgXzBT5FhW3-1" vertex="1">
                    <mxGeometry y="61" width="180" height="30" as="geometry"/>
                </mxCell>
                <mxCell id="i0uG_HZAxRgXzBT5FhW3-6" value="" style="shape=partialRectangle;connectable=0;fillColor=none;top=0;left=0;bottom=0;right=0;editable=1;overflow=hidden;whiteSpace=wrap;html=1;" parent="i0uG_HZAxRgXzBT5FhW3-5" vertex="1">
                    <mxGeometry width="30" height="30" as="geometry">
                        <mxRectangle width="30" height="30" as="alternateBounds"/>
                    </mxGeometry>
                </mxCell>
                <mxCell id="i0uG_HZAxRgXzBT5FhW3-7" value="Title" style="shape=partialRectangle;connectable=0;fillColor=none;top=0;left=0;bottom=0;right=0;align=left;spacingLeft=6;overflow=hidden;whiteSpace=wrap;html=1;" parent="i0uG_HZAxRgXzBT5FhW3-5" vertex="1">
                    <mxGeometry x="30" width="150" height="30" as="geometry">
                        <mxRectangle width="150" height="30" as="alternateBounds"/>
                    </mxGeometry>
                </mxCell>
                <mxCell id="i0uG_HZAxRgXzBT5FhW3-8" value="" style="shape=tableRow;horizontal=0;startSize=0;swimlaneHead=0;swimlaneBody=0;fillColor=none;collapsible=0;dropTarget=0;points=[[0,0.5],[1,0.5]];portConstraint=eastwest;top=0;left=0;right=0;bottom=0;movable=1;resizable=1;rotatable=1;deletable=1;editable=1;locked=0;connectable=1;" parent="i0uG_HZAxRgXzBT5FhW3-1" vertex="1">
                    <mxGeometry y="91" width="180" height="32" as="geometry"/>
                </mxCell>
                <mxCell id="i0uG_HZAxRgXzBT5FhW3-9" value="" style="shape=partialRectangle;connectable=0;fillColor=none;top=0;left=0;bottom=0;right=0;editable=1;overflow=hidden;whiteSpace=wrap;html=1;" parent="i0uG_HZAxRgXzBT5FhW3-8" vertex="1">
                    <mxGeometry width="30" height="32" as="geometry">
                        <mxRectangle width="30" height="32" as="alternateBounds"/>
                    </mxGeometry>
                </mxCell>
                <mxCell id="i0uG_HZAxRgXzBT5FhW3-10" value="rating" style="shape=partialRectangle;connectable=0;fillColor=none;top=0;left=0;bottom=0;right=0;align=left;spacingLeft=6;overflow=hidden;whiteSpace=wrap;html=1;movable=0;resizable=0;rotatable=0;deletable=0;editable=0;locked=1;" parent="i0uG_HZAxRgXzBT5FhW3-8" vertex="1">
                    <mxGeometry x="30" width="150" height="32" as="geometry">
                        <mxRectangle width="150" height="32" as="alternateBounds"/>
                    </mxGeometry>
                </mxCell>
                <mxCell id="i0uG_HZAxRgXzBT5FhW3-11" value="" style="shape=tableRow;horizontal=0;startSize=0;swimlaneHead=0;swimlaneBody=0;fillColor=none;collapsible=0;dropTarget=0;points=[[0,0.5],[1,0.5]];portConstraint=eastwest;top=0;left=0;right=0;bottom=0;" parent="i0uG_HZAxRgXzBT5FhW3-1" vertex="1">
                    <mxGeometry y="123" width="180" height="29" as="geometry"/>
                </mxCell>
                <mxCell id="i0uG_HZAxRgXzBT5FhW3-12" value="" style="shape=partialRectangle;connectable=0;fillColor=none;top=0;left=0;bottom=0;right=0;editable=1;overflow=hidden;whiteSpace=wrap;html=1;" parent="i0uG_HZAxRgXzBT5FhW3-11" vertex="1">
                    <mxGeometry width="30" height="29" as="geometry">
                        <mxRectangle width="30" height="29" as="alternateBounds"/>
                    </mxGeometry>
                </mxCell>
                <mxCell id="i0uG_HZAxRgXzBT5FhW3-13" value="description" style="shape=partialRectangle;connectable=0;fillColor=none;top=0;left=0;bottom=0;right=0;align=left;spacingLeft=6;overflow=hidden;whiteSpace=wrap;html=1;" parent="i0uG_HZAxRgXzBT5FhW3-11" vertex="1">
                    <mxGeometry x="30" width="150" height="29" as="geometry">
                        <mxRectangle width="150" height="29" as="alternateBounds"/>
                    </mxGeometry>
                </mxCell>
                <mxCell id="i0uG_HZAxRgXzBT5FhW3-14" value="" style="shape=tableRow;horizontal=0;startSize=0;swimlaneHead=0;swimlaneBody=0;fillColor=none;collapsible=0;dropTarget=0;points=[[0,0.5],[1,0.5]];portConstraint=eastwest;top=0;left=0;right=0;bottom=0;" parent="i0uG_HZAxRgXzBT5FhW3-1" vertex="1">
                    <mxGeometry y="152" width="180" height="28" as="geometry"/>
                </mxCell>
                <mxCell id="i0uG_HZAxRgXzBT5FhW3-15" value="" style="shape=partialRectangle;connectable=0;fillColor=none;top=0;left=0;bottom=0;right=0;editable=1;overflow=hidden;whiteSpace=wrap;html=1;" parent="i0uG_HZAxRgXzBT5FhW3-14" vertex="1">
                    <mxGeometry width="30" height="28" as="geometry">
                        <mxRectangle width="30" height="28" as="alternateBounds"/>
                    </mxGeometry>
                </mxCell>
                <mxCell id="i0uG_HZAxRgXzBT5FhW3-16" value="image" style="shape=partialRectangle;connectable=0;fillColor=none;top=0;left=0;bottom=0;right=0;align=left;spacingLeft=6;overflow=hidden;whiteSpace=wrap;html=1;" parent="i0uG_HZAxRgXzBT5FhW3-14" vertex="1">
                    <mxGeometry x="30" width="150" height="28" as="geometry">
                        <mxRectangle width="150" height="28" as="alternateBounds"/>
                    </mxGeometry>
                </mxCell>
                <mxCell id="HcxpcLOLtftWDRzbti_G-1" value="" style="shape=tableRow;horizontal=0;startSize=0;swimlaneHead=0;swimlaneBody=0;fillColor=none;collapsible=0;dropTarget=0;points=[[0,0.5],[1,0.5]];portConstraint=eastwest;top=0;left=0;right=0;bottom=0;" parent="i0uG_HZAxRgXzBT5FhW3-1" vertex="1">
                    <mxGeometry y="180" width="180" height="28" as="geometry"/>
                </mxCell>
                <mxCell id="HcxpcLOLtftWDRzbti_G-2" value="" style="shape=partialRectangle;connectable=0;fillColor=none;top=0;left=0;bottom=0;right=0;editable=1;overflow=hidden;whiteSpace=wrap;html=1;" parent="HcxpcLOLtftWDRzbti_G-1" vertex="1">
                    <mxGeometry width="30" height="28" as="geometry">
                        <mxRectangle width="30" height="28" as="alternateBounds"/>
                    </mxGeometry>
                </mxCell>
                <mxCell id="HcxpcLOLtftWDRzbti_G-3" value="categorie*" style="shape=partialRectangle;connectable=0;fillColor=none;top=0;left=0;bottom=0;right=0;align=left;spacingLeft=6;overflow=hidden;whiteSpace=wrap;html=1;" parent="HcxpcLOLtftWDRzbti_G-1" vertex="1">
                    <mxGeometry x="30" width="150" height="28" as="geometry">
                        <mxRectangle width="150" height="28" as="alternateBounds"/>
                    </mxGeometry>
                </mxCell>
                <mxCell id="sNCS7hDuC74xeLGB1uhR-2" value="Matchs" style="shape=table;startSize=30;container=1;collapsible=1;childLayout=tableLayout;fixedRows=1;rowLines=0;fontStyle=1;align=center;resizeLast=1;html=1;" parent="1" vertex="1">
                    <mxGeometry x="380" y="430" width="180" height="150" as="geometry"/>
                </mxCell>
                <mxCell id="sNCS7hDuC74xeLGB1uhR-3" value="" style="shape=tableRow;horizontal=0;startSize=0;swimlaneHead=0;swimlaneBody=0;fillColor=none;collapsible=0;dropTarget=0;points=[[0,0.5],[1,0.5]];portConstraint=eastwest;top=0;left=0;right=0;bottom=1;" parent="sNCS7hDuC74xeLGB1uhR-2" vertex="1">
                    <mxGeometry y="30" width="180" height="30" as="geometry"/>
                </mxCell>
                <mxCell id="sNCS7hDuC74xeLGB1uhR-4" value="PK" style="shape=partialRectangle;connectable=0;fillColor=none;top=0;left=0;bottom=0;right=0;fontStyle=1;overflow=hidden;whiteSpace=wrap;html=1;" parent="sNCS7hDuC74xeLGB1uhR-3" vertex="1">
                    <mxGeometry width="30" height="30" as="geometry">
                        <mxRectangle width="30" height="30" as="alternateBounds"/>
                    </mxGeometry>
                </mxCell>
                <mxCell id="sNCS7hDuC74xeLGB1uhR-5" value="UniqueID" style="shape=partialRectangle;connectable=0;fillColor=none;top=0;left=0;bottom=0;right=0;align=left;spacingLeft=6;fontStyle=5;overflow=hidden;whiteSpace=wrap;html=1;" parent="sNCS7hDuC74xeLGB1uhR-3" vertex="1">
                    <mxGeometry x="30" width="150" height="30" as="geometry">
                        <mxRectangle width="150" height="30" as="alternateBounds"/>
                    </mxGeometry>
                </mxCell>
                <mxCell id="sNCS7hDuC74xeLGB1uhR-6" value="" style="shape=tableRow;horizontal=0;startSize=0;swimlaneHead=0;swimlaneBody=0;fillColor=none;collapsible=0;dropTarget=0;points=[[0,0.5],[1,0.5]];portConstraint=eastwest;top=0;left=0;right=0;bottom=0;" parent="sNCS7hDuC74xeLGB1uhR-2" vertex="1">
                    <mxGeometry y="60" width="180" height="30" as="geometry"/>
                </mxCell>
                <mxCell id="sNCS7hDuC74xeLGB1uhR-7" value="" style="shape=partialRectangle;connectable=0;fillColor=none;top=0;left=0;bottom=0;right=0;editable=1;overflow=hidden;whiteSpace=wrap;html=1;" parent="sNCS7hDuC74xeLGB1uhR-6" vertex="1">
                    <mxGeometry width="30" height="30" as="geometry">
                        <mxRectangle width="30" height="30" as="alternateBounds"/>
                    </mxGeometry>
                </mxCell>
                <mxCell id="sNCS7hDuC74xeLGB1uhR-8" value="Film_id" style="shape=partialRectangle;connectable=0;fillColor=none;top=0;left=0;bottom=0;right=0;align=left;spacingLeft=6;overflow=hidden;whiteSpace=wrap;html=1;" parent="sNCS7hDuC74xeLGB1uhR-6" vertex="1">
                    <mxGeometry x="30" width="150" height="30" as="geometry">
                        <mxRectangle width="150" height="30" as="alternateBounds"/>
                    </mxGeometry>
                </mxCell>
                <mxCell id="sNCS7hDuC74xeLGB1uhR-9" value="" style="shape=tableRow;horizontal=0;startSize=0;swimlaneHead=0;swimlaneBody=0;fillColor=none;collapsible=0;dropTarget=0;points=[[0,0.5],[1,0.5]];portConstraint=eastwest;top=0;left=0;right=0;bottom=0;" parent="sNCS7hDuC74xeLGB1uhR-2" vertex="1">
                    <mxGeometry y="90" width="180" height="30" as="geometry"/>
                </mxCell>
                <mxCell id="sNCS7hDuC74xeLGB1uhR-10" value="" style="shape=partialRectangle;connectable=0;fillColor=none;top=0;left=0;bottom=0;right=0;editable=1;overflow=hidden;whiteSpace=wrap;html=1;" parent="sNCS7hDuC74xeLGB1uhR-9" vertex="1">
                    <mxGeometry width="30" height="30" as="geometry">
                        <mxRectangle width="30" height="30" as="alternateBounds"/>
                    </mxGeometry>
                </mxCell>
                <mxCell id="sNCS7hDuC74xeLGB1uhR-11" value="User_id" style="shape=partialRectangle;connectable=0;fillColor=none;top=0;left=0;bottom=0;right=0;align=left;spacingLeft=6;overflow=hidden;whiteSpace=wrap;html=1;" parent="sNCS7hDuC74xeLGB1uhR-9" vertex="1">
                    <mxGeometry x="30" width="150" height="30" as="geometry">
                        <mxRectangle width="150" height="30" as="alternateBounds"/>
                    </mxGeometry>
                </mxCell>
                <mxCell id="sNCS7hDuC74xeLGB1uhR-12" value="" style="shape=tableRow;horizontal=0;startSize=0;swimlaneHead=0;swimlaneBody=0;fillColor=none;collapsible=0;dropTarget=0;points=[[0,0.5],[1,0.5]];portConstraint=eastwest;top=0;left=0;right=0;bottom=0;" parent="sNCS7hDuC74xeLGB1uhR-2" vertex="1">
                    <mxGeometry y="120" width="180" height="30" as="geometry"/>
                </mxCell>
                <mxCell id="sNCS7hDuC74xeLGB1uhR-13" value="" style="shape=partialRectangle;connectable=0;fillColor=none;top=0;left=0;bottom=0;right=0;editable=1;overflow=hidden;whiteSpace=wrap;html=1;" parent="sNCS7hDuC74xeLGB1uhR-12" vertex="1">
                    <mxGeometry width="30" height="30" as="geometry">
                        <mxRectangle width="30" height="30" as="alternateBounds"/>
                    </mxGeometry>
                </mxCell>
                <mxCell id="sNCS7hDuC74xeLGB1uhR-14" value="Row 3" style="shape=partialRectangle;connectable=0;fillColor=none;top=0;left=0;bottom=0;right=0;align=left;spacingLeft=6;overflow=hidden;whiteSpace=wrap;html=1;" parent="sNCS7hDuC74xeLGB1uhR-12" vertex="1">
                    <mxGeometry x="30" width="150" height="30" as="geometry">
                        <mxRectangle width="150" height="30" as="alternateBounds"/>
                    </mxGeometry>
                </mxCell>
                <mxCell id="sNCS7hDuC74xeLGB1uhR-15" style="edgeStyle=orthogonalEdgeStyle;rounded=0;orthogonalLoop=1;jettySize=auto;html=1;exitX=1;exitY=0.5;exitDx=0;exitDy=0;" parent="1" source="Ujwy5-n2hMPKuP97srHc-21" target="sNCS7hDuC74xeLGB1uhR-2" edge="1">
                    <mxGeometry relative="1" as="geometry"/>
                </mxCell>
                <mxCell id="sNCS7hDuC74xeLGB1uhR-16" value="1:n" style="text;html=1;strokeColor=none;fillColor=none;align=center;verticalAlign=middle;whiteSpace=wrap;rounded=0;" parent="1" vertex="1">
                    <mxGeometry x="350" y="174" width="60" height="30" as="geometry"/>
                </mxCell>
                <mxCell id="sNCS7hDuC74xeLGB1uhR-17" style="edgeStyle=orthogonalEdgeStyle;rounded=0;orthogonalLoop=1;jettySize=auto;html=1;exitX=0;exitY=0.5;exitDx=0;exitDy=0;entryX=0.75;entryY=0;entryDx=0;entryDy=0;" parent="1" source="i0uG_HZAxRgXzBT5FhW3-8" target="sNCS7hDuC74xeLGB1uhR-2" edge="1">
                    <mxGeometry relative="1" as="geometry"/>
                </mxCell>
                <mxCell id="sNCS7hDuC74xeLGB1uhR-18" value="n:1" style="text;html=1;strokeColor=none;fillColor=none;align=center;verticalAlign=middle;whiteSpace=wrap;rounded=0;" parent="1" vertex="1">
                    <mxGeometry x="550" y="174" width="60" height="30" as="geometry"/>
                </mxCell>
            </root>
        </mxGraphModel>
    </diagram>
</mxfile>